<svg xmlns="http://www.w3.org/2000/svg" xmlns:xlink="http://www.w3.org/1999/xlink" viewBox="0 0 504.44 601.43"><defs><style>.cls-1{fill:none;}.cls-2{clip-path:url(#clip-path);}.cls-3,.cls-4{fill:#cacaca;}.cls-3,.cls-8{stroke:#0d6efd;stroke-miterlimit:10;}.cls-3,.cls-4,.cls-5,.cls-6,.cls-8{fill-rule:evenodd;}.cls-5,.cls-8{fill:#2f2e41;}.cls-6{fill:#ffc107;}.cls-7{fill:#fff;}.cls-8{stroke-width:2px;}</style><clipPath id="clip-path" transform="translate(-109.64 -39.34)"><rect class="cls-1" width="631" height="588"/></clipPath></defs><title>Asset 2</title><g id="Layer_2" data-name="Layer 2"><g id="Layer_12" data-name="Layer 12"><g class="cls-2"><path class="cls-3" d="M511.19,443.39,579.5,631.5l-95.49,8s-144.88,5.67-144.51-13,10.83-106.5,2.64-107.41S320,470.93,320,470.93L245,433.29l-33.7-30.49S190.77,387.48,190.17,380s-14.76-7.75-14.76-7.75c-24.42-9.43,2.5-32.38,2.5-32.38s16.83-21.3,20.74-30.91.71-35.78.71-35.78c15.36-22.81,7.7-87.83,21.08-123.36s88.34-55.67,88.34-55.67l198,18.07s16.64,290.39,9.82,333.5" transform="translate(-109.64 -39.34)"/><path class="cls-4" d="M196.64,411.08s2.85,6.77,6.56,7.59,3.61,6,3.52,10.51,1.33,8.22,5.8,8.31S230,420.69,230,420.69l-26.58-13.2Z" transform="translate(-109.64 -39.34)"/><path class="cls-5" d="M197,279.85s9.31-18.45,26.46-18.11,20.12.39,26.76,4.25c0,0-16.72-2.94-25.05,3.61S212.24,282,207,282.66,196.57,282.46,197,279.85Z" transform="translate(-109.64 -39.34)"/><path class="cls-6" d="M220.14,297.09c10.49-2.78,98.1-21.18,104.81-21S441,249,441,249s-109.49,15.61-125.07,11.58-104,20.31-104,20.31-7.42-1.63-18,4.12,2.48,25.4,2.48,25.4,2.47,7.14,11.15,20.73,10.33,5.42,10.33,5.42C227,330,222,317.26,217,306S220.14,297.09,220.14,297.09Zm-3.36,31.79a2.47,2.47,0,0,1-1,2.7l-1.41,1a2.47,2.47,0,0,1-3.65-1c-3.57-7.72-13.82-30.05-16.13-36.88a2.75,2.75,0,0,1,.81-3c2.43-2.07,7.61-6,9.25-3.12C206.54,291.87,214.72,321.43,216.78,328.88Z" transform="translate(-109.64 -39.34)"/><path class="cls-7" d="M202.85,288h0a1.56,1.56,0,0,1,1.48.82c1.46,2.55,7.2,22.44,12.09,40.21a2.12,2.12,0,0,1-.85,2.3l-1.41,1a2.14,2.14,0,0,1-1.19.37,2.11,2.11,0,0,1-1.91-1.22c-3.2-6.91-13.79-30-16.12-36.85a2.36,2.36,0,0,1,.71-2.56c3-2.57,5.63-4,7.2-4m0-.38c-2.27,0-5.63,2.58-7.45,4.13a2.75,2.75,0,0,0-.81,3c2.31,6.83,12.56,29.16,16.13,36.88a2.47,2.47,0,0,0,3.65,1l1.41-1a2.45,2.45,0,0,0,1-2.7c-2.05-7.45-10.23-37-12.12-40.3a1.94,1.94,0,0,0-1.8-1Z" transform="translate(-109.64 -39.34)"/><path class="cls-8" d="M206,445.19s2,49.26,23.35,63.84,155.13-77.46,144.86-85.87-10.12-91.91-14.85-116.61,28.74-58.34,55.88-35.44,28.65,21.45,20.63,50.37-6.79,116.93-6.79,116.93,66.5-6.89,90.79,9.25,90.19-224.9,90.19-224.9l-53.72-74.13,55.39-10.84L527.34,70.51l-41-.81L533.67,52,465.1,50.64l-19.92,27.2s-28.34-37.84-39-28.36-30.88-22.23-55.13-2.58S333.86,51,285,73.18s-112.58-.73-112.58-.73,18.88,25.73,40.65,18,19.78,18.28-15.28,19.08-44,2.11-44,2.11,42.22,14.26,70,2.88-6.68,36.4-40.22,35.74-71.26-16.32-71.26-16.32,17.37,26.44,52.41,27.13-.85,5.21-20,30.18S111.56,207,142,250.06s-25.31-2,3.7-36.46,72.09-25.42,50.18-10.94a360.21,360.21,0,0,0-40.14,31.27s31.44-6.09,44.28-14.78,9.75,35.23,5.28,35.14,31.39-41.88,31.39-41.88,10.75-15.44,34.92,6.66,45.71,26.25,46.09,44.9,11.06,44.21,1,64.14,9.76,34.5-28.64,53.13-53,39.21-53,39.21-28.23-43.05-50-34.54c0,0-7,15.52-2.62,19.34s39.23,14.94,39.23,14.94S209.82,442.29,206,445.19Z" transform="translate(-109.64 -39.34)"/></g></g></g></svg>